<svg width="600" height="89" xmlns="http://www.w3.org/2000/svg"><path d="M21.511 23.131H0V2h66v21.131H44.611V88h-23.1zM77 2h56.021v20.149h-33.27v12.9h30.702v19.78H99.75v12.654H134V88H77zm110.245 87c-8.498 0-16.096-1.9-22.797-5.7-6.7-3.8-11.95-9.092-15.749-15.876C144.9 60.641 143 53 143 44.5s1.9-16.141 5.7-22.924c3.799-6.784 9.048-12.075 15.748-15.876 6.7-3.8 14.3-5.7 22.797-5.7 7.436 0 14.217 1.471 20.346 4.413 6.128 2.942 11.214 7.11 15.259 12.504 4.044 5.394 6.68 11.646 7.905 18.757h-23.287c-1.39-4.168-3.86-7.478-7.415-9.93-3.554-2.452-7.66-3.678-12.318-3.678-4.003 0-7.619.96-10.846 2.881-3.228 1.92-5.74 4.577-7.538 7.968-1.798 3.392-2.696 7.254-2.696 11.585 0 4.331.898 8.193 2.696 11.585 1.798 3.391 4.31 6.047 7.538 7.968 3.227 1.92 6.843 2.88 10.846 2.88 4.821 0 9.05-1.307 12.686-3.922 3.636-2.615 6.107-6.13 7.415-10.543H231c-1.144 7.274-3.738 13.67-7.783 19.186-4.044 5.516-9.151 9.786-15.32 12.81-6.17 3.024-13.053 4.536-20.652 4.536Zm69.266-65.869H235V2h66v21.131h-21.389V88h-23.1zM297 85.42 328.284 2h21.308L381 85.42V88h-24.018l-4.064-13.269h-27.836L320.772 88H297v-2.58Zm50.499-28.994L339 32.1l-8.499 24.326H347.5ZM388 2h23.352v64.5H447V88h-59zm66 65.729h12.718V21.903h-12.469V2h48.502v19.903h-12.469v45.826H503V88h-49zM556.245 89c-8.498 0-16.096-1.9-22.797-5.7-6.7-3.8-11.95-9.092-15.749-15.876C513.9 60.641 512 53 512 44.5s1.9-16.141 5.7-22.924c3.799-6.784 9.048-12.075 15.748-15.876 6.7-3.8 14.3-5.7 22.797-5.7 7.436 0 14.217 1.471 20.346 4.413 6.128 2.942 11.214 7.11 15.259 12.504 4.044 5.394 6.68 11.646 7.905 18.757h-23.287c-1.39-4.168-3.86-7.478-7.415-9.93-3.554-2.452-7.66-3.678-12.318-3.678-4.003 0-7.619.96-10.846 2.881-3.228 1.92-5.74 4.577-7.538 7.968-1.798 3.392-2.696 7.254-2.696 11.585 0 4.331.898 8.193 2.696 11.585 1.798 3.391 4.31 6.047 7.538 7.968 3.227 1.92 6.843 2.88 10.846 2.88 4.821 0 9.05-1.307 12.686-3.922 3.636-2.615 6.107-6.13 7.415-10.543H600c-1.144 7.274-3.738 13.67-7.783 19.186-4.044 5.516-9.151 9.786-15.32 12.81-6.17 3.024-13.053 4.536-20.652 4.536Z" fill="#1C266A"/></svg>